<?xml version="1.0" encoding="UTF-8" standalone="no"?>
<!-- Created with Inkscape (http://www.inkscape.org/) -->

<svg
   width="512"
   height="512"
   viewBox="0 0 512 512"
   version="1.1"
   id="svg5"
   inkscape:version="1.3.2 (091e20e, 2023-11-25, custom)"
   sodipodi:docname="Схема.svg"
   inkscape:export-filename="Комбинированная_СС.png"
   inkscape:export-xdpi="281.92001"
   inkscape:export-ydpi="281.92001"
   xmlns:inkscape="http://www.inkscape.org/namespaces/inkscape"
   xmlns:sodipodi="http://sodipodi.sourceforge.net/DTD/sodipodi-0.dtd"
   xmlns:xlink="http://www.w3.org/1999/xlink"
   xmlns="http://www.w3.org/2000/svg"
   xmlns:svg="http://www.w3.org/2000/svg"
   xmlns:ns5="http://www.iki.fi/pav/software/textext/">
  <sodipodi:namedview
     id="namedview7"
     pagecolor="#ffffff"
     bordercolor="#666666"
     borderopacity="1.0"
     inkscape:showpageshadow="2"
     inkscape:pageopacity="0.0"
     inkscape:pagecheckerboard="0"
     inkscape:deskcolor="#d1d1d1"
     inkscape:document-units="px"
     showgrid="true"
     inkscape:zoom="5.2149126"
     inkscape:cx="242.19006"
     inkscape:cy="104.02859"
     inkscape:window-width="1920"
     inkscape:window-height="1106"
     inkscape:window-x="-11"
     inkscape:window-y="-11"
     inkscape:window-maximized="1"
     inkscape:current-layer="layer1">
    <inkscape:grid
       type="xygrid"
       id="grid189"
       originx="0"
       originy="0"
       spacingy="1"
       spacingx="1"
       units="px"
       visible="true" />
  </sodipodi:namedview>
  <defs
     id="defs2">
    <marker
       style="overflow:visible"
       id="Arrow1L"
       refX="5.5"
       refY="0"
       orient="auto-start-reverse"
       inkscape:stockid="Arrow1L"
       markerWidth="8.75"
       markerHeight="5"
       viewBox="0 0 8.75 5"
       inkscape:isstock="true"
       inkscape:collect="always"
       preserveAspectRatio="xMidYMid">
      <path
         style="fill:context-stroke;fill-rule:evenodd;stroke:none"
         d="M 0,0 5,-5 -12.5,0 5,5 Z"
         id="arrow1L"
         transform="scale(-0.5)" />
    </marker>
    <symbol
       id="symbol677">
      <path
         style="fill:none;stroke:#000000;stroke-width:1px;stroke-linecap:butt;stroke-linejoin:miter;stroke-opacity:1"
         d="m 70,75 c 0,0 -0.04141,-4.350621 0,-5 0.06924,-1.085796 0.295658,-3.941873 0.790013,-5.915141 C 71.841151,59.889136 74.290863,55 80,55 c 10,0 10,15 10,15 0,0 0,-15 10,-15 10,0 10,15 10,15 0,0 0,-15 10,-15 10,0 10,15 10,15 0,0 0,-15 10,-15 10,0 10,15 10,15 v 5"
         id="path355"
         sodipodi:nodetypes="cssscscscscc">
        <title
           id="title675">L</title>
      </path>
      <title
         id="title679">L</title>
    </symbol>
    <symbol
       id="g2826">
      <title
         id="title2828">Генератор</title>
      <circle
         style="fill:none;stroke:#000000;stroke-width:1;stroke-miterlimit:0;stroke-dasharray:none;stroke-opacity:1;stop-color:#000000"
         id="path1353"
         cx="195"
         cy="-65"
         r="20"
         transform="scale(1,-1)" />
      <rect
         style="fill:none;stroke:#000000;stroke-width:1;stroke-miterlimit:0;stroke-dasharray:none;stroke-opacity:1;stop-color:#000000"
         id="rect2819"
         width="10"
         height="5"
         x="190"
         y="40" />
      <rect
         style="fill:none;stroke:#000000;stroke-width:1;stroke-miterlimit:0;stroke-dasharray:none;stroke-opacity:1;stop-color:#000000"
         id="rect2821"
         width="10"
         height="5"
         x="190"
         y="-90"
         transform="scale(1,-1)" />
      <title
         id="title2832">Генератор</title>
    </symbol>
    <symbol
       id="g2864">
      <title
         id="title2866">Операционник</title>
      <rect
         style="fill:none;stroke:#000000;stroke-width:1;stroke-miterlimit:0;stroke-dasharray:none;stroke-opacity:1;stop-color:#000000"
         id="rect2858"
         width="45"
         height="60"
         x="225"
         y="35" />
      <path
         style="fill:none;stroke:#000000;stroke-width:1px;stroke-linecap:butt;stroke-linejoin:miter;stroke-opacity:1"
         d="M 237.5,65 V 45 l 15,10 z"
         id="path2860" />
      <title
         id="title2870">Операционник</title>
    </symbol>
    <symbol
       id="symbol5254">
      <circle
         style="fill:#ffffff;fill-opacity:1;stroke:#000000;stroke-width:1;stroke-miterlimit:0;stroke-dasharray:none;stroke-opacity:1;stop-color:#000000"
         id="path3118"
         cx="60"
         cy="-200"
         r="3"
         transform="scale(1,-1)">
        <title
           id="title5252">Кружок</title>
      </circle>
      <title
         id="title5256">Кружок</title>
    </symbol>
    <symbol
       id="g5515">
      <title
         id="title5517">Обмотка возбуждения</title>
      <g
         id="g5503">
        <use
           xlink:href="#symbol677"
           id="use5341"
           transform="rotate(-90,245,65)" />
        <path
           style="fill:none;stroke:#000000;stroke-width:1px;stroke-linecap:butt;stroke-linejoin:miter;stroke-opacity:1"
           d="m 255,240 h 10"
           id="path5412" />
        <path
           style="fill:none;stroke:#000000;stroke-width:1px;stroke-linecap:butt;stroke-linejoin:miter;stroke-opacity:1"
           d="m 255,160 h 10"
           id="path5416" />
        <use
           xlink:href="#symbol5254"
           id="use5428"
           transform="matrix(1,0,0,-1,205,360)" />
        <use
           xlink:href="#symbol5254"
           id="use5457"
           transform="translate(205,40)" />
      </g>
      <text
         xml:space="preserve"
         style="font-size:42.6667px;line-height:1.25;font-family:sans-serif"
         x="257.61066"
         y="215.77869"
         id="text5486"><tspan
           sodipodi:role="line"
           id="tspan5484"
           x="257.61066"
           y="215.77869">=</tspan></text>
      <text
         xml:space="preserve"
         style="font-size:18.6667px;line-height:1.25;font-family:sans-serif"
         x="239.29601"
         y="149.81334"
         id="text5490"><tspan
           sodipodi:role="line"
           id="tspan5488"
           x="239.29601"
           y="149.81334">ОВ</tspan></text>
      <title
         id="title5521">Обмотка возбуждения</title>
    </symbol>
    <symbol
       id="g5741">
      <title
         id="title5743">Земля</title>
      <path
         style="fill:none;stroke:#000000;stroke-width:1px;stroke-linecap:butt;stroke-linejoin:miter;stroke-opacity:1"
         d="m 60,220 v 5"
         id="path5665" />
      <path
         style="fill:none;stroke:#000000;stroke-width:1px;stroke-linecap:butt;stroke-linejoin:miter;stroke-opacity:1"
         d="M 75,225 H 45"
         id="path5671" />
      <path
         style="fill:none;stroke:#000000;stroke-width:1px;stroke-linecap:butt;stroke-linejoin:miter;stroke-opacity:1"
         d="M 50,230 H 70"
         id="path5673" />
      <path
         style="fill:none;stroke:#000000;stroke-width:1px;stroke-linecap:butt;stroke-linejoin:miter;stroke-opacity:1"
         d="M 55,235 H 65"
         id="path5675" />
      <title
         id="title5747">Земля</title>
    </symbol>
    <symbol
       id="g7952">
      <title
         id="title7954">Сумматор</title>
      <circle
         style="fill:none;fill-opacity:1;stroke:#000000;stroke-width:1;stroke-miterlimit:0;stroke-dasharray:none;stroke-dashoffset:0;stroke-opacity:1;stop-color:#000000"
         id="path7931"
         cx="130"
         cy="60"
         r="10" />
      <path
         style="fill:none;stroke:#000000;stroke-width:1px;stroke-linecap:butt;stroke-linejoin:miter;stroke-opacity:1"
         d="M 123,67 137,53"
         id="path7933" />
      <path
         style="fill:none;stroke:#000000;stroke-width:1px;stroke-linecap:butt;stroke-linejoin:miter;stroke-opacity:1"
         d="m 123,53 14,14"
         id="path7935" />
      <path
         style="fill:none;fill-opacity:1;stroke:#000000;stroke-width:0.2;stroke-miterlimit:0;stroke-dasharray:none;stroke-dashoffset:0;stroke-opacity:1;stop-color:#000000"
         d="m 129.33488,69.461829 c -1.74971,-0.119258 -3.62492,-0.824496 -5.02286,-1.889014 -0.19455,-0.148153 -0.41688,-0.324348 -0.49406,-0.391544 l -0.14032,-0.122175 3.16242,-3.161066 3.16242,-3.161066 3.16463,3.164788 3.16462,3.164789 -0.36716,0.295333 c -0.98507,0.792367 -2.15068,1.402413 -3.32655,1.741024 -1.05507,0.303827 -2.23326,0.431853 -3.30314,0.358931 z"
         id="path7937" />
      <path
         style="fill:none;fill-opacity:1;stroke:#000000;stroke-width:0.2;stroke-miterlimit:0;stroke-dasharray:none;stroke-dashoffset:0;stroke-opacity:1;stop-color:#000000"
         d="m 122.70709,66.048668 c -1.24779,-1.539787 -1.95,-3.224012 -2.14379,-5.141829 -0.0555,-0.549002 -0.0256,-1.786014 0.0555,-2.301972 0.26519,-1.685602 0.94451,-3.226963 2.00866,-4.557617 0.15635,-0.195512 0.29452,-0.355477 0.30703,-0.355477 0.0125,0 1.44098,1.418308 3.17438,3.151796 l 3.15164,3.151796 -3.15164,3.151796 c -1.7334,1.733488 -3.16229,3.151796 -3.17531,3.151796 -0.013,0 -0.11496,-0.11263 -0.22652,-0.250289 z"
         id="path7939" />
      <path
         style="fill:none;fill-opacity:1;stroke:#000000;stroke-width:0.2;stroke-miterlimit:0;stroke-dasharray:none;stroke-dashoffset:0;stroke-opacity:1;stop-color:#000000"
         d="m 126.83892,56.09037 -3.16323,-3.163396 0.36378,-0.291472 c 1.73436,-1.389632 3.76542,-2.106724 5.96285,-2.105264 2.32403,0.0015 4.37282,0.765099 6.21943,2.317886 l 0.10124,0.08513 -3.16042,3.160255 -3.16041,3.160255 z"
         id="path7941" />
      <path
         style="fill:none;fill-opacity:1;stroke:#000000;stroke-width:0.2;stroke-miterlimit:0;stroke-dasharray:none;stroke-dashoffset:0;stroke-opacity:1;stop-color:#000000"
         d="m 133.89569,63.147134 -3.15166,-3.151823 3.15769,-3.157694 3.15769,-3.157694 0.097,0.107895 c 0.0534,0.05934 0.23611,0.291441 0.4061,0.515774 0.98536,1.300383 1.58711,2.763574 1.84518,4.486675 0.0758,0.506397 0.0656,2.001117 -0.0174,2.539976 -0.22446,1.457124 -0.74556,2.799415 -1.54981,3.992148 -0.203,0.301053 -0.73591,0.976566 -0.77041,0.976566 -0.0125,0 -1.441,-1.41832 -3.17441,-3.151823 z"
         id="path7943" />
      <title
         id="title7958">Сумматор</title>
    </symbol>
    <symbol
       id="g6685">
      <title
         id="title6687">Резистор</title>
      <path
         style="fill:none;stroke:#000000;stroke-width:1px;stroke-linecap:butt;stroke-linejoin:miter;stroke-opacity:1"
         d="m 360,90 v 10 h 30 V 90 h -30"
         id="path6676" />
      <path
         style="fill:none;stroke:#000000;stroke-width:1px;stroke-linecap:butt;stroke-linejoin:miter;stroke-opacity:1"
         d="m 360,95 h -5"
         id="path6678" />
      <path
         style="fill:none;stroke:#000000;stroke-width:1px;stroke-linecap:butt;stroke-linejoin:miter;stroke-opacity:1"
         d="m 390,95 h 5"
         id="path6680" />
      <title
         id="title6691">Резистор</title>
    </symbol>
    <symbol
       id="symbol9790">
      <circle
         style="fill:#000000;fill-opacity:1;stroke:#000000;stroke-width:2.85;stroke-dasharray:none;stop-color:#000000"
         id="path8018"
         cx="255"
         cy="409"
         r="1">
        <title
           id="title9788">Узел</title>
      </circle>
      <title
         id="title9792">Узел</title>
    </symbol>
    <symbol
       id="g7592">
      <title
         id="title7703">Сумматор2</title>
      <use
         xlink:href="#g7952"
         id="use6575"
         transform="translate(245.5,104.5)" />
      <path
         style="fill:#000000;stroke:#000000;stroke-width:0.545;stroke-dasharray:none;stop-color:#000000"
         d="m 373.33631,173.55392 c -1.13408,-0.30761 -2.30701,-0.8489 -3.20599,-1.47949 l -0.73285,-0.51407 3.03278,-3.03279 3.03279,-3.03279 3.04217,3.04217 3.04216,3.04216 -0.59152,0.43374 c -0.78334,0.57439 -2.11317,1.22313 -3.01191,1.46931 -0.4129,0.1131 -1.37864,0.22156 -2.23886,0.25143 -1.23198,0.0428 -1.67162,0.009 -2.36877,-0.17967 z"
         id="path6925" />
      <title
         id="title7707">Сумматор2</title>
    </symbol>
    <g
       id="id-863bf65e-bba2-4212-8e96-2c5c10b55a40-5">
      <g
         id="id-61ad15d7-fdd6-4274-af58-9d6e5c468b3b-7" />
      <g
         id="id-d93d6128-afa5-4cb2-89c5-2967707f0e93-8">
        <path
           d="m 13,-9.140625 v -0.21875 h -2.65625 v 0.21875 c 0.78125,0.078125 0.9375,0.171875 0.9375,0.578125 0,0.25 -0.109375,0.578125 -0.3125,0.953125 L 8.296875,-2.328125 7.71875,-8.09375 7.703125,-8.296875 c 0,-0.578125 0.21875,-0.765625 0.96875,-0.84375 v -0.21875 h -3.40625 v 0.21875 c 0.828125,0.03125 0.96875,0.125 1.078125,0.828125 l 0.125,1 L 4,-2.328125 3.375,-8.140625 3.359375,-8.34375 c 0,-0.5625 0.171875,-0.6875 1.046875,-0.796875 v -0.21875 H 1.015625 v 0.21875 c 0.46875,0.0625 0.59375,0.109375 0.734375,0.21875 C 1.921875,-8.75 1.984375,-8.5 2.15625,-7.15625 L 3.046875,0.265625 H 3.3125 L 6.5,-6.25 h 0.0625 l 0.71875,6.515625 h 0.296875 l 4.34375,-8.375 C 12.3125,-8.828125 12.453125,-8.96875 13,-9.140625 Z m 0,0"
           id="id-3b837ca3-972c-4ff6-af6c-2002d76e89c2-1" />
      </g>
      <g
         id="id-2fa59a98-0688-42b7-9ee8-684537721373-0" />
      <g
         id="id-f5c83240-2fca-4261-b862-838293deb464-2">
        <path
           d="m 4.78125,-1.78125 c 0,-0.859375 -0.65625,-1.671875 -1.75,-1.890625 C 3.890625,-3.96875 4.5,-4.6875 4.5,-5.515625 4.5,-6.375 3.578125,-6.96875 2.578125,-6.96875 c -1.0625,0 -1.859375,0.640625 -1.859375,1.421875 C 0.71875,-5.1875 0.953125,-5 1.25,-5 c 0.328125,0 0.53125,-0.234375 0.53125,-0.53125 0,-0.515625 -0.484375,-0.515625 -0.640625,-0.515625 0.328125,-0.515625 1.015625,-0.65625 1.390625,-0.65625 0.421875,0 1,0.234375 1,1.171875 0,0.125 -0.015625,0.734375 -0.296875,1.1875 -0.3125,0.5 -0.65625,0.53125 -0.921875,0.546875 -0.09375,0.015625 -0.34375,0.03125 -0.40625,0.03125 C 1.8125,-3.75 1.75,-3.75 1.75,-3.640625 c 0,0.125 0.0625,0.125 0.25,0.125 h 0.453125 c 0.859375,0 1.25,0.703125 1.25,1.734375 0,1.421875 -0.71875,1.71875 -1.1875,1.71875 -0.453125,0 -1.234375,-0.171875 -1.59375,-0.796875 0.359375,0.046875 0.6875,-0.171875 0.6875,-0.578125 0,-0.375 -0.28125,-0.578125 -0.578125,-0.578125 -0.25,0 -0.59375,0.140625 -0.59375,0.609375 0,0.953125 0.96875,1.640625 2.109375,1.640625 1.28125,0 2.234375,-0.953125 2.234375,-2.015625 z m 0,0"
           id="id-d728b871-611d-4b3c-a69b-99ff3757bd6e-6" />
      </g>
    </g>
    <g
       id="id-863bf65e-bba2-4212-8e96-2c5c10b55a40-7">
      <g
         id="id-61ad15d7-fdd6-4274-af58-9d6e5c468b3b-3" />
      <g
         id="id-d93d6128-afa5-4cb2-89c5-2967707f0e93-80">
        <path
           d="m 13,-9.140625 v -0.21875 h -2.65625 v 0.21875 c 0.78125,0.078125 0.9375,0.171875 0.9375,0.578125 0,0.25 -0.109375,0.578125 -0.3125,0.953125 L 8.296875,-2.328125 7.71875,-8.09375 7.703125,-8.296875 c 0,-0.578125 0.21875,-0.765625 0.96875,-0.84375 v -0.21875 h -3.40625 v 0.21875 c 0.828125,0.03125 0.96875,0.125 1.078125,0.828125 l 0.125,1 L 4,-2.328125 3.375,-8.140625 3.359375,-8.34375 c 0,-0.5625 0.171875,-0.6875 1.046875,-0.796875 v -0.21875 H 1.015625 v 0.21875 c 0.46875,0.0625 0.59375,0.109375 0.734375,0.21875 C 1.921875,-8.75 1.984375,-8.5 2.15625,-7.15625 L 3.046875,0.265625 H 3.3125 L 6.5,-6.25 h 0.0625 l 0.71875,6.515625 h 0.296875 l 4.34375,-8.375 C 12.3125,-8.828125 12.453125,-8.96875 13,-9.140625 Z m 0,0"
           id="id-3b837ca3-972c-4ff6-af6c-2002d76e89c2-6" />
      </g>
      <g
         id="id-2fa59a98-0688-42b7-9ee8-684537721373-8" />
      <g
         id="id-f5c83240-2fca-4261-b862-838293deb464-6">
        <path
           d="m 4.78125,-1.78125 c 0,-0.859375 -0.65625,-1.671875 -1.75,-1.890625 C 3.890625,-3.96875 4.5,-4.6875 4.5,-5.515625 4.5,-6.375 3.578125,-6.96875 2.578125,-6.96875 c -1.0625,0 -1.859375,0.640625 -1.859375,1.421875 C 0.71875,-5.1875 0.953125,-5 1.25,-5 c 0.328125,0 0.53125,-0.234375 0.53125,-0.53125 0,-0.515625 -0.484375,-0.515625 -0.640625,-0.515625 0.328125,-0.515625 1.015625,-0.65625 1.390625,-0.65625 0.421875,0 1,0.234375 1,1.171875 0,0.125 -0.015625,0.734375 -0.296875,1.1875 -0.3125,0.5 -0.65625,0.53125 -0.921875,0.546875 -0.09375,0.015625 -0.34375,0.03125 -0.40625,0.03125 C 1.8125,-3.75 1.75,-3.75 1.75,-3.640625 c 0,0.125 0.0625,0.125 0.25,0.125 h 0.453125 c 0.859375,0 1.25,0.703125 1.25,1.734375 0,1.421875 -0.71875,1.71875 -1.1875,1.71875 -0.453125,0 -1.234375,-0.171875 -1.59375,-0.796875 0.359375,0.046875 0.6875,-0.171875 0.6875,-0.578125 0,-0.375 -0.28125,-0.578125 -0.578125,-0.578125 -0.25,0 -0.59375,0.140625 -0.59375,0.609375 0,0.953125 0.96875,1.640625 2.109375,1.640625 1.28125,0 2.234375,-0.953125 2.234375,-2.015625 z m 0,0"
           id="id-d728b871-611d-4b3c-a69b-99ff3757bd6e-8" />
      </g>
    </g>
    <g
       id="id-863bf65e-bba2-4212-8e96-2c5c10b55a40-9">
      <g
         id="id-61ad15d7-fdd6-4274-af58-9d6e5c468b3b-30" />
      <g
         id="id-d93d6128-afa5-4cb2-89c5-2967707f0e93-2">
        <path
           d="m 13,-9.140625 v -0.21875 h -2.65625 v 0.21875 c 0.78125,0.078125 0.9375,0.171875 0.9375,0.578125 0,0.25 -0.109375,0.578125 -0.3125,0.953125 L 8.296875,-2.328125 7.71875,-8.09375 7.703125,-8.296875 c 0,-0.578125 0.21875,-0.765625 0.96875,-0.84375 v -0.21875 h -3.40625 v 0.21875 c 0.828125,0.03125 0.96875,0.125 1.078125,0.828125 l 0.125,1 L 4,-2.328125 3.375,-8.140625 3.359375,-8.34375 c 0,-0.5625 0.171875,-0.6875 1.046875,-0.796875 v -0.21875 H 1.015625 v 0.21875 c 0.46875,0.0625 0.59375,0.109375 0.734375,0.21875 C 1.921875,-8.75 1.984375,-8.5 2.15625,-7.15625 L 3.046875,0.265625 H 3.3125 L 6.5,-6.25 h 0.0625 l 0.71875,6.515625 h 0.296875 l 4.34375,-8.375 C 12.3125,-8.828125 12.453125,-8.96875 13,-9.140625 Z m 0,0"
           id="id-3b837ca3-972c-4ff6-af6c-2002d76e89c2-3" />
      </g>
      <g
         id="id-2fa59a98-0688-42b7-9ee8-684537721373-9" />
      <g
         id="id-f5c83240-2fca-4261-b862-838293deb464-1">
        <path
           d="m 4.78125,-1.78125 c 0,-0.859375 -0.65625,-1.671875 -1.75,-1.890625 C 3.890625,-3.96875 4.5,-4.6875 4.5,-5.515625 4.5,-6.375 3.578125,-6.96875 2.578125,-6.96875 c -1.0625,0 -1.859375,0.640625 -1.859375,1.421875 C 0.71875,-5.1875 0.953125,-5 1.25,-5 c 0.328125,0 0.53125,-0.234375 0.53125,-0.53125 0,-0.515625 -0.484375,-0.515625 -0.640625,-0.515625 0.328125,-0.515625 1.015625,-0.65625 1.390625,-0.65625 0.421875,0 1,0.234375 1,1.171875 0,0.125 -0.015625,0.734375 -0.296875,1.1875 -0.3125,0.5 -0.65625,0.53125 -0.921875,0.546875 -0.09375,0.015625 -0.34375,0.03125 -0.40625,0.03125 C 1.8125,-3.75 1.75,-3.75 1.75,-3.640625 c 0,0.125 0.0625,0.125 0.25,0.125 h 0.453125 c 0.859375,0 1.25,0.703125 1.25,1.734375 0,1.421875 -0.71875,1.71875 -1.1875,1.71875 -0.453125,0 -1.234375,-0.171875 -1.59375,-0.796875 0.359375,0.046875 0.6875,-0.171875 0.6875,-0.578125 0,-0.375 -0.28125,-0.578125 -0.578125,-0.578125 -0.25,0 -0.59375,0.140625 -0.59375,0.609375 0,0.953125 0.96875,1.640625 2.109375,1.640625 1.28125,0 2.234375,-0.953125 2.234375,-2.015625 z m 0,0"
           id="id-d728b871-611d-4b3c-a69b-99ff3757bd6e-67" />
      </g>
    </g>
    <g
       id="id-322b4d3a-af2b-4812-aff8-1521d05cc0a9-5">
      <g
         id="id-ac557d0e-3d67-425f-811f-cadc1303eee7-2" />
      <g
         id="id-0eef4b1f-c2a8-474c-918a-cc7315ff2497-2">
        <path
           d="m 13,-9.140625 v -0.21875 h -2.65625 v 0.21875 c 0.78125,0.078125 0.9375,0.171875 0.9375,0.578125 0,0.25 -0.109375,0.578125 -0.3125,0.953125 L 8.296875,-2.328125 7.71875,-8.09375 7.703125,-8.296875 c 0,-0.578125 0.21875,-0.765625 0.96875,-0.84375 v -0.21875 h -3.40625 v 0.21875 c 0.828125,0.03125 0.96875,0.125 1.078125,0.828125 l 0.125,1 L 4,-2.328125 3.375,-8.140625 3.359375,-8.34375 c 0,-0.5625 0.171875,-0.6875 1.046875,-0.796875 v -0.21875 H 1.015625 v 0.21875 c 0.46875,0.0625 0.59375,0.109375 0.734375,0.21875 C 1.921875,-8.75 1.984375,-8.5 2.15625,-7.15625 L 3.046875,0.265625 H 3.3125 L 6.5,-6.25 h 0.0625 l 0.71875,6.515625 h 0.296875 l 4.34375,-8.375 C 12.3125,-8.828125 12.453125,-8.96875 13,-9.140625 Z m 0,0"
           id="id-d76115c7-3e1b-470a-9a83-b4431c1be7e3-7" />
      </g>
      <g
         id="id-c56a0a03-e21e-4f71-8e2c-3cc61c3c41b9-6">
        <path
           d="m 6.734375,-4.53125 c 0,-1.125 -0.625,-1.796875 -1.65625,-1.796875 -0.9375,0 -1.625,0.46875 -2.453125,1.625 l 0.4375,-1.5625 c 0,0 -0.015625,-0.0625 -0.0625,-0.0625 H 2.984375 l -2.203125,0.3125 0.015625,0.21875 c 0.4375,0 0.9375,0 0.9375,0.390625 0,0.171875 -0.5,2.15625 -1.015625,4.0625 l -0.828125,3.203125 c -0.15625,0.671875 -0.34375,0.84375 -0.96875,0.859375 V 2.9375 h 2.9375 V 2.71875 c -0.671875,0 -0.90625,-0.109375 -0.90625,-0.421875 0,-0.203125 0.234375,-1.28125 0.53125,-2.390625 0.359375,0.1875 0.609375,0.25 0.9375,0.25 2.09375,0 4.3125,-2.390625 4.3125,-4.6875 z M 5.4375,-4.484375 c 0,0.9375 -0.390625,2.125 -0.984375,3 -0.625,0.90625 -1.328125,1.375 -2.09375,1.375 -0.390625,0 -0.6875,-0.21875 -0.6875,-0.53125 0,-0.5 0.515625,-2.359375 0.9375,-3.4375 0.375,-0.9375 1.171875,-1.625 1.875,-1.625 0.015625,0 0.046875,0 0.0625,0 C 5.15625,-5.6875 5.4375,-5.3125 5.4375,-4.484375 Z m 0,0"
           id="id-5be1bbce-9f95-4c0e-b6ab-b986f63ed144-5" />
      </g>
      <g
         id="id-660ee402-707b-4c0b-bdc3-6a12071e8895-0" />
      <g
         id="id-b8a03060-1d25-4b89-95e3-52817e36b50c-0">
        <path
           d="M 4.375,0 V -0.328125 H 4.046875 c -0.9375,0 -0.96875,-0.109375 -0.96875,-0.5 V -6.6875 c 0,-0.25 0,-0.28125 -0.25,-0.28125 -0.640625,0.671875 -1.5625,0.671875 -1.890625,0.671875 v 0.328125 c 0.203125,0 0.8125,0 1.359375,-0.265625 v 5.40625 c 0,0.375 -0.03125,0.5 -0.96875,0.5 H 1 V 0 c 0.359375,-0.03125 1.265625,-0.03125 1.6875,-0.03125 0.421875,0 1.328125,0 1.6875,0.03125 z m 0,0"
           id="id-514fdac6-5810-48ff-bb79-3aa540695836-9" />
      </g>
      <g
         id="id-6a235c80-778d-4eb1-8824-e7c15a258faf-6" />
      <g
         id="id-29bca036-5809-4e97-ac08-e76c5e7b1846-8">
        <path
           d="M 4.234375,-10.28125 C 2.15625,-8.9375 0.6875,-6.609375 0.6875,-3.6875 c 0,2.671875 1.515625,5.359375 3.5,6.578125 l 0.171875,-0.21875 c -1.890625,-1.5 -2.4375,-3.234375 -2.4375,-6.40625 0,-3.171875 0.59375,-4.828125 2.4375,-6.328125 z m 0,0"
           id="id-ad024cfb-7b54-4d6d-a024-b1da7566cf38-9" />
      </g>
      <g
         id="id-d119c73b-05b9-4657-90ad-b41e89bff433-3">
        <path
           d="m 0.546875,-10.28125 -0.125,0.21875 c 1.84375,1.5 2.4375,3.15625 2.4375,6.328125 0,3.171875 -0.546875,4.90625 -2.4375,6.40625 l 0.171875,0.21875 c 1.96875,-1.21875 3.5,-3.90625 3.5,-6.578125 0,-2.921875 -1.46875,-5.25 -3.546875,-6.59375 z m 0,0"
           id="id-2532fd06-24ad-41b2-ad67-7a87b92be1ea-1" />
      </g>
    </g>
    <g
       id="id-bf24a749-800a-4e29-987c-51cd2f27bec4-4">
      <g
         id="id-7028428d-0564-4f06-80b3-542228eabe21-8" />
      <g
         id="id-fd85dc61-169c-4cd4-bde8-5fe1b165afb8-9">
        <path
           d="m 13,-9.140625 v -0.21875 h -2.65625 v 0.21875 c 0.78125,0.078125 0.9375,0.171875 0.9375,0.578125 0,0.25 -0.109375,0.578125 -0.3125,0.953125 L 8.296875,-2.328125 7.71875,-8.09375 7.703125,-8.296875 c 0,-0.578125 0.21875,-0.765625 0.96875,-0.84375 v -0.21875 h -3.40625 v 0.21875 c 0.828125,0.03125 0.96875,0.125 1.078125,0.828125 l 0.125,1 L 4,-2.328125 3.375,-8.140625 3.359375,-8.34375 c 0,-0.5625 0.171875,-0.6875 1.046875,-0.796875 v -0.21875 H 1.015625 v 0.21875 c 0.46875,0.0625 0.59375,0.109375 0.734375,0.21875 C 1.921875,-8.75 1.984375,-8.5 2.15625,-7.15625 L 3.046875,0.265625 H 3.3125 L 6.5,-6.25 h 0.0625 l 0.71875,6.515625 h 0.296875 l 4.34375,-8.375 C 12.3125,-8.828125 12.453125,-8.96875 13,-9.140625 Z m 0,0"
           id="id-f76930c0-1c0a-4070-a379-177915887971-0" />
      </g>
      <g
         id="id-288836fd-ebb9-44ee-9ad3-6743aad4aa0a-5">
        <path
           d="m 6.734375,-4.53125 c 0,-1.125 -0.625,-1.796875 -1.65625,-1.796875 -0.9375,0 -1.625,0.46875 -2.453125,1.625 l 0.4375,-1.5625 c 0,0 -0.015625,-0.0625 -0.0625,-0.0625 H 2.984375 l -2.203125,0.3125 0.015625,0.21875 c 0.4375,0 0.9375,0 0.9375,0.390625 0,0.171875 -0.5,2.15625 -1.015625,4.0625 l -0.828125,3.203125 c -0.15625,0.671875 -0.34375,0.84375 -0.96875,0.859375 V 2.9375 h 2.9375 V 2.71875 c -0.671875,0 -0.90625,-0.109375 -0.90625,-0.421875 0,-0.203125 0.234375,-1.28125 0.53125,-2.390625 0.359375,0.1875 0.609375,0.25 0.9375,0.25 2.09375,0 4.3125,-2.390625 4.3125,-4.6875 z M 5.4375,-4.484375 c 0,0.9375 -0.390625,2.125 -0.984375,3 -0.625,0.90625 -1.328125,1.375 -2.09375,1.375 -0.390625,0 -0.6875,-0.21875 -0.6875,-0.53125 0,-0.5 0.515625,-2.359375 0.9375,-3.4375 0.375,-0.9375 1.171875,-1.625 1.875,-1.625 0.015625,0 0.046875,0 0.0625,0 C 5.15625,-5.6875 5.4375,-5.3125 5.4375,-4.484375 Z m 0,0"
           id="id-22fd0fea-be1b-4333-888b-953847d45589-8" />
      </g>
      <g
         id="id-46de14a1-c3fa-4041-bf97-a32bb6acb46d-6" />
      <g
         id="id-96f79b28-1dc9-4766-b7e9-04f18d8184f4-1">
        <path
           d="m 4.78125,-1.78125 c 0,-0.859375 -0.65625,-1.671875 -1.75,-1.890625 C 3.890625,-3.96875 4.5,-4.6875 4.5,-5.515625 4.5,-6.375 3.578125,-6.96875 2.578125,-6.96875 c -1.0625,0 -1.859375,0.640625 -1.859375,1.421875 C 0.71875,-5.1875 0.953125,-5 1.25,-5 c 0.328125,0 0.53125,-0.234375 0.53125,-0.53125 0,-0.515625 -0.484375,-0.515625 -0.640625,-0.515625 0.328125,-0.515625 1.015625,-0.65625 1.390625,-0.65625 0.421875,0 1,0.234375 1,1.171875 0,0.125 -0.015625,0.734375 -0.296875,1.1875 -0.3125,0.5 -0.65625,0.53125 -0.921875,0.546875 -0.09375,0.015625 -0.34375,0.03125 -0.40625,0.03125 C 1.8125,-3.75 1.75,-3.75 1.75,-3.640625 c 0,0.125 0.0625,0.125 0.25,0.125 h 0.453125 c 0.859375,0 1.25,0.703125 1.25,1.734375 0,1.421875 -0.71875,1.71875 -1.1875,1.71875 -0.453125,0 -1.234375,-0.171875 -1.59375,-0.796875 0.359375,0.046875 0.6875,-0.171875 0.6875,-0.578125 0,-0.375 -0.28125,-0.578125 -0.578125,-0.578125 -0.25,0 -0.59375,0.140625 -0.59375,0.609375 0,0.953125 0.96875,1.640625 2.109375,1.640625 1.28125,0 2.234375,-0.953125 2.234375,-2.015625 z m 0,0"
           id="id-60db92c1-c7f1-44a0-8583-50f83119b929-5" />
      </g>
      <g
         id="id-7db3fb4a-745f-4bee-a589-561b105854fa-3" />
      <g
         id="id-cb1ac8dc-7242-43c7-b7d5-d6b6420cc584-2">
        <path
           d="M 4.234375,-10.28125 C 2.15625,-8.9375 0.6875,-6.609375 0.6875,-3.6875 c 0,2.671875 1.515625,5.359375 3.5,6.578125 l 0.171875,-0.21875 c -1.890625,-1.5 -2.4375,-3.234375 -2.4375,-6.40625 0,-3.171875 0.59375,-4.828125 2.4375,-6.328125 z m 0,0"
           id="id-7e4766e7-ad4d-48be-8283-49e73b818c34-8" />
      </g>
      <g
         id="id-f6bb873a-1b1f-46f1-8b49-f27e0dd174f5-6">
        <path
           d="m 0.546875,-10.28125 -0.125,0.21875 c 1.84375,1.5 2.4375,3.15625 2.4375,6.328125 0,3.171875 -0.546875,4.90625 -2.4375,6.40625 l 0.171875,0.21875 c 1.96875,-1.21875 3.5,-3.90625 3.5,-6.578125 0,-2.921875 -1.46875,-5.25 -3.546875,-6.59375 z m 0,0"
           id="id-db83c61b-b4d1-4103-8348-9bb953e76aa4-2" />
      </g>
    </g>
    <g
       id="id-b9404fd6-a23d-479c-bd02-bea75976eb45-7">
      <g
         id="id-bc7b4b0b-7923-422e-ac5e-205995b3749b-3" />
      <g
         id="id-87370977-17d4-4eb9-a0ae-f1d6a0071ae1-9">
        <path
           d="m 13,-9.140625 v -0.21875 h -2.65625 v 0.21875 c 0.78125,0.078125 0.9375,0.171875 0.9375,0.578125 0,0.25 -0.109375,0.578125 -0.3125,0.953125 L 8.296875,-2.328125 7.71875,-8.09375 7.703125,-8.296875 c 0,-0.578125 0.21875,-0.765625 0.96875,-0.84375 v -0.21875 h -3.40625 v 0.21875 c 0.828125,0.03125 0.96875,0.125 1.078125,0.828125 l 0.125,1 L 4,-2.328125 3.375,-8.140625 3.359375,-8.34375 c 0,-0.5625 0.171875,-0.6875 1.046875,-0.796875 v -0.21875 H 1.015625 v 0.21875 c 0.46875,0.0625 0.59375,0.109375 0.734375,0.21875 C 1.921875,-8.75 1.984375,-8.5 2.15625,-7.15625 L 3.046875,0.265625 H 3.3125 L 6.5,-6.25 h 0.0625 l 0.71875,6.515625 h 0.296875 l 4.34375,-8.375 C 12.3125,-8.828125 12.453125,-8.96875 13,-9.140625 Z m 0,0"
           id="id-3a98cec3-ae8f-445b-a43d-7fd9bf027064-0" />
      </g>
      <g
         id="id-3cc056a4-b135-49fe-a260-33ef56406129-5">
        <path
           d="m 6.734375,-4.53125 c 0,-1.125 -0.625,-1.796875 -1.65625,-1.796875 -0.9375,0 -1.625,0.46875 -2.453125,1.625 l 0.4375,-1.5625 c 0,0 -0.015625,-0.0625 -0.0625,-0.0625 H 2.984375 l -2.203125,0.3125 0.015625,0.21875 c 0.4375,0 0.9375,0 0.9375,0.390625 0,0.171875 -0.5,2.15625 -1.015625,4.0625 l -0.828125,3.203125 c -0.15625,0.671875 -0.34375,0.84375 -0.96875,0.859375 V 2.9375 h 2.9375 V 2.71875 c -0.671875,0 -0.90625,-0.109375 -0.90625,-0.421875 0,-0.203125 0.234375,-1.28125 0.53125,-2.390625 0.359375,0.1875 0.609375,0.25 0.9375,0.25 2.09375,0 4.3125,-2.390625 4.3125,-4.6875 z M 5.4375,-4.484375 c 0,0.9375 -0.390625,2.125 -0.984375,3 -0.625,0.90625 -1.328125,1.375 -2.09375,1.375 -0.390625,0 -0.6875,-0.21875 -0.6875,-0.53125 0,-0.5 0.515625,-2.359375 0.9375,-3.4375 0.375,-0.9375 1.171875,-1.625 1.875,-1.625 0.015625,0 0.046875,0 0.0625,0 C 5.15625,-5.6875 5.4375,-5.3125 5.4375,-4.484375 Z m 0,0"
           id="id-870602ae-ba06-4e0d-b365-27ed23b208c0-9" />
      </g>
      <g
         id="id-b15e8f4d-2fc2-4250-80fe-a032fe00b1b9-1" />
      <g
         id="id-cb24ac03-92c2-4228-aa6b-1266568faf8d-6">
        <path
           d="M 4.921875,-1.71875 V -2.046875 H 3.875 V -6.8125 c 0,-0.203125 0,-0.265625 -0.171875,-0.265625 -0.09375,0 -0.125,0 -0.203125,0.125 l -3.203125,4.90625 v 0.328125 h 2.78125 v 0.90625 c 0,0.375 -0.03125,0.484375 -0.796875,0.484375 H 2.0625 V 0 c 0.421875,-0.03125 0.96875,-0.03125 1.40625,-0.03125 0.4375,0 1,0 1.421875,0.03125 V -0.328125 H 4.671875 C 3.90625,-0.328125 3.875,-0.4375 3.875,-0.8125 v -0.90625 z m -1.78125,-0.328125 h -2.5625 l 2.5625,-3.90625 z m 0,0"
           id="id-aec7548e-b85f-44dd-b5b3-b84e4a98d41f-2" />
      </g>
      <g
         id="id-ecc5d7d2-4a36-42b9-91d7-bbb0d5c1d74d-3" />
      <g
         id="id-72622d53-3806-4fa5-b7e8-0a943b79f836-8">
        <path
           d="M 4.234375,-10.28125 C 2.15625,-8.9375 0.6875,-6.609375 0.6875,-3.6875 c 0,2.671875 1.515625,5.359375 3.5,6.578125 l 0.171875,-0.21875 c -1.890625,-1.5 -2.4375,-3.234375 -2.4375,-6.40625 0,-3.171875 0.59375,-4.828125 2.4375,-6.328125 z m 0,0"
           id="id-f62c95f4-fd4c-441e-b26b-bcb817fe3295-8" />
      </g>
      <g
         id="id-ccde86e4-1b67-4364-9452-ecfd2d21f865-6">
        <path
           d="m 0.546875,-10.28125 -0.125,0.21875 c 1.84375,1.5 2.4375,3.15625 2.4375,6.328125 0,3.171875 -0.546875,4.90625 -2.4375,6.40625 l 0.171875,0.21875 c 1.96875,-1.21875 3.5,-3.90625 3.5,-6.578125 0,-2.921875 -1.46875,-5.25 -3.546875,-6.59375 z m 0,0"
           id="id-42c5d3b2-ed28-4d93-b828-60becd95380f-8" />
      </g>
    </g>
    <g
       id="id-33eb899b-8d8c-417e-bcfc-644a7e906a0b-7">
      <g
         id="id-818ff63c-76a2-4c8b-bf27-6da5cf923e77-2" />
      <g
         id="id-c9a1cfe7-5533-4b1a-9e61-b61c9845d48b-8">
        <path
           d="m 13,-9.140625 v -0.21875 h -2.65625 v 0.21875 c 0.78125,0.078125 0.9375,0.171875 0.9375,0.578125 0,0.25 -0.109375,0.578125 -0.3125,0.953125 L 8.296875,-2.328125 7.71875,-8.09375 7.703125,-8.296875 c 0,-0.578125 0.21875,-0.765625 0.96875,-0.84375 v -0.21875 h -3.40625 v 0.21875 c 0.828125,0.03125 0.96875,0.125 1.078125,0.828125 l 0.125,1 L 4,-2.328125 3.375,-8.140625 3.359375,-8.34375 c 0,-0.5625 0.171875,-0.6875 1.046875,-0.796875 v -0.21875 H 1.015625 v 0.21875 c 0.46875,0.0625 0.59375,0.109375 0.734375,0.21875 C 1.921875,-8.75 1.984375,-8.5 2.15625,-7.15625 L 3.046875,0.265625 H 3.3125 L 6.5,-6.25 h 0.0625 l 0.71875,6.515625 h 0.296875 l 4.34375,-8.375 C 12.3125,-8.828125 12.453125,-8.96875 13,-9.140625 Z m 0,0"
           id="id-5142fe1f-60f7-496b-927b-e32a48d20c5c-4" />
      </g>
      <g
         id="id-a2f9e189-e020-4834-b90a-da981128eb92-2">
        <path
           d="m 6.734375,-4.53125 c 0,-1.125 -0.625,-1.796875 -1.65625,-1.796875 -0.9375,0 -1.625,0.46875 -2.453125,1.625 l 0.4375,-1.5625 c 0,0 -0.015625,-0.0625 -0.0625,-0.0625 H 2.984375 l -2.203125,0.3125 0.015625,0.21875 c 0.4375,0 0.9375,0 0.9375,0.390625 0,0.171875 -0.5,2.15625 -1.015625,4.0625 l -0.828125,3.203125 c -0.15625,0.671875 -0.34375,0.84375 -0.96875,0.859375 V 2.9375 h 2.9375 V 2.71875 c -0.671875,0 -0.90625,-0.109375 -0.90625,-0.421875 0,-0.203125 0.234375,-1.28125 0.53125,-2.390625 0.359375,0.1875 0.609375,0.25 0.9375,0.25 2.09375,0 4.3125,-2.390625 4.3125,-4.6875 z M 5.4375,-4.484375 c 0,0.9375 -0.390625,2.125 -0.984375,3 -0.625,0.90625 -1.328125,1.375 -2.09375,1.375 -0.390625,0 -0.6875,-0.21875 -0.6875,-0.53125 0,-0.5 0.515625,-2.359375 0.9375,-3.4375 0.375,-0.9375 1.171875,-1.625 1.875,-1.625 0.015625,0 0.046875,0 0.0625,0 C 5.15625,-5.6875 5.4375,-5.3125 5.4375,-4.484375 Z m 0,0"
           id="id-8ae186f8-2a8c-4790-ab9c-a5f2e0b45e86-3" />
      </g>
      <g
         id="id-07b12a2c-b543-4285-b55d-e1f2293edb18-1" />
      <g
         id="id-24947fe0-7df6-45a5-b601-cba07be7f7c2-1">
        <path
           d="m 4.6875,-1.8125 h -0.25 C 4.375,-1.5 4.3125,-1.046875 4.203125,-0.890625 4.125,-0.8125 3.4375,-0.8125 3.203125,-0.8125 h -1.875 L 2.4375,-1.875 c 1.625,-1.453125 2.25,-2.015625 2.25,-3.0625 0,-1.1875 -0.9375,-2.03125 -2.203125,-2.03125 -1.1875,0 -1.96875,0.96875 -1.96875,1.90625 0,0.578125 0.53125,0.578125 0.5625,0.578125 0.171875,0 0.546875,-0.125 0.546875,-0.546875 0,-0.28125 -0.1875,-0.546875 -0.5625,-0.546875 -0.078125,0 -0.09375,0 -0.125,0 0.234375,-0.671875 0.796875,-1.0625 1.40625,-1.0625 0.953125,0 1.40625,0.84375 1.40625,1.703125 0,0.84375 -0.53125,1.671875 -1.109375,2.3125 l -2,2.234375 C 0.515625,-0.265625 0.515625,-0.25 0.515625,0 H 4.40625 Z m 0,0"
           id="id-05a957f1-f1f6-4e30-8128-25810b898bff-0" />
      </g>
      <g
         id="id-119eedce-0b47-466f-8877-cc6a017b0f53-4" />
      <g
         id="id-6d33d272-2082-4d74-bb8a-b28c05c9f661-5">
        <path
           d="M 4.234375,-10.28125 C 2.15625,-8.9375 0.6875,-6.609375 0.6875,-3.6875 c 0,2.671875 1.515625,5.359375 3.5,6.578125 l 0.171875,-0.21875 c -1.890625,-1.5 -2.4375,-3.234375 -2.4375,-6.40625 0,-3.171875 0.59375,-4.828125 2.4375,-6.328125 z m 0,0"
           id="id-9601f479-5895-4b69-b74f-12ec2becdafd-6" />
      </g>
      <g
         id="id-9734144c-6119-4e46-a7bd-45722f346d52-5">
        <path
           d="m 0.546875,-10.28125 -0.125,0.21875 c 1.84375,1.5 2.4375,3.15625 2.4375,6.328125 0,3.171875 -0.546875,4.90625 -2.4375,6.40625 l 0.171875,0.21875 c 1.96875,-1.21875 3.5,-3.90625 3.5,-6.578125 0,-2.921875 -1.46875,-5.25 -3.546875,-6.59375 z m 0,0"
           id="id-d62d9259-882a-4f5f-9b30-8819f616d77e-5" />
      </g>
    </g>
    <g
       id="id-b0342afa-d81f-4866-8b75-e92cb53f85b5-6">
      <g
         id="id-1d72fe0c-ff2a-4684-a04d-deddd53b2b16-8" />
      <g
         id="id-54cca4ca-9f00-403c-937b-ede7aaaae34c-2">
        <path
           d="m 9.078125,-9.140625 v -0.21875 H 6.375 v 0.21875 L 6.75,-9.09375 c 0.421875,0.046875 0.609375,0.15625 0.609375,0.40625 0,0.375 -0.640625,1.296875 -2.15625,3.046875 L 4.65625,-4.984375 4.21875,-6.5625 C 3.859375,-7.78125 3.703125,-8.40625 3.703125,-8.625 c 0,-0.359375 0.171875,-0.421875 1.03125,-0.515625 v -0.21875 H 1.3125 v 0.21875 c 0.796875,0.125 0.84375,0.15625 1.078125,0.953125 L 3.5,-4.328125 2.625,-1.296875 c -0.25,0.78125 -0.5625,1.015625 -1.5,1.0625 V 0 H 5.265625 V -0.234375 L 4.75,-0.265625 C 4.1875,-0.296875 3.984375,-0.4375 3.984375,-0.796875 c 0,-0.3125 0.109375,-0.71875 0.453125,-1.859375 L 4.515625,-2.9375 4.9375,-4.390625 l 3.140625,-3.875 c 0.453125,-0.5625 0.578125,-0.671875 1,-0.875 z m 0,0"
           id="id-5343b747-da1a-4789-89d7-a6d5df34c57d-9" />
      </g>
      <g
         id="id-b253a391-fa7e-4e31-8551-ff1944a7ba92-7" />
      <g
         id="id-45a8c220-d842-4bd8-a0aa-b1502480891c-6">
        <path
           d="M 4.375,0 V -0.328125 H 4.046875 c -0.9375,0 -0.96875,-0.109375 -0.96875,-0.5 V -6.6875 c 0,-0.25 0,-0.28125 -0.25,-0.28125 -0.640625,0.671875 -1.5625,0.671875 -1.890625,0.671875 v 0.328125 c 0.203125,0 0.8125,0 1.359375,-0.265625 v 5.40625 c 0,0.375 -0.03125,0.5 -0.96875,0.5 H 1 V 0 c 0.359375,-0.03125 1.265625,-0.03125 1.6875,-0.03125 0.421875,0 1.328125,0 1.6875,0.03125 z m 0,0"
           id="id-d6c265dc-dc36-4ebe-9027-e70dedab1547-0" />
      </g>
    </g>
    <g
       id="id-fdf2aa05-9bf5-47f9-83e8-13f19d411b7f-9">
      <g
         id="id-7f7f636c-e81e-4856-a9fa-e6ac8c8c749e-9" />
      <g
         id="id-844dfbad-df03-4e6d-a508-381e9bb17f04-4">
        <path
           d="m 10.96875,-9.140625 v -0.21875 H 8.125 v 0.21875 c 0.75,0.078125 1.015625,0.234375 1.015625,0.65625 0,0.234375 -0.359375,1.65625 -1.0625,4.125 l -0.1875,0.703125 c -0.625,2.34375 -1.546875,3.328125 -3.125,3.328125 C 3.578125,-0.328125 2.75,-1 2.75,-2.015625 c 0,-0.5 0.4375,-2.1875 1.40625,-5.546875 l 0.078125,-0.265625 c 0.296875,-1 0.53125,-1.203125 1.5,-1.3125 v -0.21875 h -3.90625 v 0.21875 c 0.96875,0.09375 1.109375,0.171875 1.109375,0.59375 0,0.171875 -0.046875,0.40625 -0.09375,0.640625 l -0.765625,2.75 c -0.4375,1.578125 -0.609375,2.453125 -0.609375,3.0625 0,1.359375 1.296875,2.359375 3.125,2.359375 1.875,0 3.0625,-1.03125 3.703125,-3.171875 L 9.484375,-7 c 0.546875,-1.859375 0.59375,-1.9375 1.484375,-2.140625 z m 0,0"
           id="id-3cb87cca-8e63-4e8c-ac16-ac0e7c6db8c8-6" />
      </g>
    </g>
    <g
       id="id-601126e9-8519-4ab8-b5c8-9f8355b467fa-7">
      <g
         id="id-84b7e42f-3b8f-4968-8528-db2615dbc5df-5" />
      <g
         id="id-22f9386b-81d7-4e40-8ea8-44e754a626b4-4">
        <path
           d="M 7.9375,-2.40625 7.65625,-2.453125 C 7.203125,-1.53125 6.9375,-1.1875 6.453125,-0.921875 5.96875,-0.625 5.25,-0.515625 4.078125,-0.515625 h -2.3125 L 8.6875,-9.171875 v -0.1875 H 1.71875 l -0.65625,2.09375 0.265625,0.0625 c 0.3125,-0.625 0.484375,-0.875 0.75,-1.109375 C 2.5,-8.671875 3.25,-8.84375 4.328125,-8.84375 H 6.78125 l -6.875,8.640625 V 0 h 7.25 z m 0,0"
           id="id-935c6d50-7439-4fb4-b8ee-d37dc0f890f5-9" />
      </g>
    </g>
    <g
       id="id-601126e9-8519-4ab8-b5c8-9f8355b467fa-6">
      <g
         id="id-84b7e42f-3b8f-4968-8528-db2615dbc5df-4" />
      <g
         id="id-22f9386b-81d7-4e40-8ea8-44e754a626b4-8">
        <path
           d="M 7.9375,-2.40625 7.65625,-2.453125 C 7.203125,-1.53125 6.9375,-1.1875 6.453125,-0.921875 5.96875,-0.625 5.25,-0.515625 4.078125,-0.515625 h -2.3125 L 8.6875,-9.171875 v -0.1875 H 1.71875 l -0.65625,2.09375 0.265625,0.0625 c 0.3125,-0.625 0.484375,-0.875 0.75,-1.109375 C 2.5,-8.671875 3.25,-8.84375 4.328125,-8.84375 H 6.78125 l -6.875,8.640625 V 0 h 7.25 z m 0,0"
           id="id-935c6d50-7439-4fb4-b8ee-d37dc0f890f5-2" />
      </g>
    </g>
    <g
       id="id-fdf2aa05-9bf5-47f9-83e8-13f19d411b7f-8">
      <g
         id="id-7f7f636c-e81e-4856-a9fa-e6ac8c8c749e-2" />
      <g
         id="id-844dfbad-df03-4e6d-a508-381e9bb17f04-8">
        <path
           d="m 10.96875,-9.140625 v -0.21875 H 8.125 v 0.21875 c 0.75,0.078125 1.015625,0.234375 1.015625,0.65625 0,0.234375 -0.359375,1.65625 -1.0625,4.125 l -0.1875,0.703125 c -0.625,2.34375 -1.546875,3.328125 -3.125,3.328125 C 3.578125,-0.328125 2.75,-1 2.75,-2.015625 c 0,-0.5 0.4375,-2.1875 1.40625,-5.546875 l 0.078125,-0.265625 c 0.296875,-1 0.53125,-1.203125 1.5,-1.3125 v -0.21875 h -3.90625 v 0.21875 c 0.96875,0.09375 1.109375,0.171875 1.109375,0.59375 0,0.171875 -0.046875,0.40625 -0.09375,0.640625 l -0.765625,2.75 c -0.4375,1.578125 -0.609375,2.453125 -0.609375,3.0625 0,1.359375 1.296875,2.359375 3.125,2.359375 1.875,0 3.0625,-1.03125 3.703125,-3.171875 L 9.484375,-7 c 0.546875,-1.859375 0.59375,-1.9375 1.484375,-2.140625 z m 0,0"
           id="id-3cb87cca-8e63-4e8c-ac16-ac0e7c6db8c8-4" />
      </g>
    </g>
    <g
       id="id-4b3238f7-2760-4705-a6a2-3a02308ea092-4">
      <g
         id="id-bffa38be-c645-438b-b462-40375cadd301-8" />
      <g
         id="id-3c79ed32-0faf-4677-b797-7ea995255f6a-0">
        <path
           d="M 6.828125,-1.4375 6.65625,-1.578125 6.25,-1.171875 C 5.8125,-0.71875 5.640625,-0.59375 5.515625,-0.59375 c -0.125,0 -0.203125,-0.078125 -0.203125,-0.1875 0,-0.28125 0.59375,-2.75 1.265625,-5.203125 C 6.625,-6.125 6.640625,-6.15625 6.671875,-6.28125 L 6.5625,-6.328125 5.6875,-6.21875 5.65625,-6.1875 5.5,-5.5 C 5.375,-6.03125 4.96875,-6.328125 4.34375,-6.328125 2.4375,-6.328125 0.25,-3.71875 0.25,-1.4375 c 0,1 0.53125,1.59375 1.453125,1.59375 1.015625,0 1.625,-0.46875 2.890625,-2.25 -0.3125,1.171875 -0.328125,1.296875 -0.328125,1.65625 0,0.40625 0.171875,0.578125 0.5625,0.578125 0.578125,0 0.921875,-0.265625 2,-1.578125 z m -1.59375,-3.703125 c 0,1.203125 -0.734375,2.90625 -1.703125,3.96875 -0.34375,0.390625 -0.828125,0.625 -1.25,0.625 -0.515625,0 -0.828125,-0.40625 -0.828125,-1.0625 0,-0.765625 0.5,-2.171875 1.09375,-3.078125 0.578125,-0.84375 1.21875,-1.328125 1.8125,-1.328125 0.03125,0 0.046875,0 0.078125,0 0.484375,0.03125 0.796875,0.375 0.796875,0.875 z m 0,0"
           id="id-7e1360b5-da2f-4aef-aed0-ac9d2fe76b2b-7" />
      </g>
    </g>
    <g
       id="id-3a668855-0025-4a9d-82e9-24b307dc8112-7">
      <g
         id="id-ed80a35a-8951-4071-b7a7-9698a7a4a02b-0" />
      <g
         id="id-b1b79467-4013-421a-b928-abe10b3b275f-1">
        <path
           d="m 8.234375,-3.28125 v -0.8125 h -7.34375 v 0.8125 z m 0,0"
           id="id-d3f3598a-8e5e-43e9-af1d-c5a6b3298263-5" />
      </g>
      <g
         id="id-f798f5b9-af32-488b-a437-8fe40b09dbb9-3" />
      <g
         id="id-4197929d-7fbb-4321-9c21-a8e2d1cce77a-7">
        <path
           d="M 6.828125,-1.4375 6.65625,-1.578125 6.25,-1.171875 C 5.8125,-0.71875 5.640625,-0.59375 5.515625,-0.59375 c -0.125,0 -0.203125,-0.078125 -0.203125,-0.1875 0,-0.28125 0.59375,-2.75 1.265625,-5.203125 C 6.625,-6.125 6.640625,-6.15625 6.671875,-6.28125 L 6.5625,-6.328125 5.6875,-6.21875 5.65625,-6.1875 5.5,-5.5 C 5.375,-6.03125 4.96875,-6.328125 4.34375,-6.328125 2.4375,-6.328125 0.25,-3.71875 0.25,-1.4375 c 0,1 0.53125,1.59375 1.453125,1.59375 1.015625,0 1.625,-0.46875 2.890625,-2.25 -0.3125,1.171875 -0.328125,1.296875 -0.328125,1.65625 0,0.40625 0.171875,0.578125 0.5625,0.578125 0.578125,0 0.921875,-0.265625 2,-1.578125 z m -1.59375,-3.703125 c 0,1.203125 -0.734375,2.90625 -1.703125,3.96875 -0.34375,0.390625 -0.828125,0.625 -1.25,0.625 -0.515625,0 -0.828125,-0.40625 -0.828125,-1.0625 0,-0.765625 0.5,-2.171875 1.09375,-3.078125 0.578125,-0.84375 1.21875,-1.328125 1.8125,-1.328125 0.03125,0 0.046875,0 0.078125,0 0.484375,0.03125 0.796875,0.375 0.796875,0.875 z m 0,0"
           id="id-09c545ae-1889-4131-a924-4baab578adb2-7" />
      </g>
    </g>
    <g
       id="id-b422599d-6e68-48e7-aa92-a6f90cfb8407-1">
      <g
         id="id-bcaffa15-2980-4e23-81ae-8193095aaa31-3" />
      <g
         id="id-ebb1f616-83f8-401b-9d04-7317e4ba84aa-9">
        <path
           d="M 10.09375,-1.5 9.890625,-1.671875 9.578125,-1.3125 c -0.40625,0.53125 -0.6875,0.765625 -0.921875,0.765625 -0.125,0 -0.171875,-0.0625 -0.171875,-0.234375 0,-0.046875 0.046875,-0.3125 0.140625,-0.640625 l 0.96875,-3.59375 c 0.015625,-0.078125 0.046875,-0.3125 0.046875,-0.40625 0,-0.515625 -0.359375,-0.90625 -0.828125,-0.90625 -0.296875,0 -0.546875,0.09375 -0.890625,0.296875 -0.703125,0.453125 -1.3125,1.15625 -2.3125,2.75 C 5.96875,-4.390625 6.1875,-5.1875 6.1875,-5.46875 c 0,-0.515625 -0.328125,-0.859375 -0.828125,-0.859375 -0.875,0 -1.875,0.953125 -3.1875,3.03125 L 3,-6.296875 2.953125,-6.328125 0.65625,-5.875 v 0.21875 h 0.359375 c 0.390625,0 0.5625,0.109375 0.5625,0.328125 0,0.171875 -0.328125,1.46875 -0.84375,3.28125 L 0.171875,0 H 1.25 c 0.6875,-2.265625 0.90625,-2.8125 1.390625,-3.5625 0.796875,-1.21875 1.65625,-2.015625 2.15625,-2.015625 0.1875,0 0.28125,0.125 0.28125,0.359375 0,0.1875 -0.390625,1.703125 -1,3.90625 L 3.71875,0 h 1.078125 c 0.546875,-2.203125 0.84375,-2.921875 1.546875,-3.921875 0.71875,-1 1.4375,-1.65625 1.875,-1.65625 0.15625,0 0.28125,0.125 0.28125,0.296875 0,0.078125 -0.015625,0.21875 -0.09375,0.5 l -0.828125,3.296875 c -0.140625,0.5625 -0.1875,0.8125 -0.1875,0.953125 0,0.4375 0.203125,0.65625 0.5625,0.65625 0.6875,0 1.3125,-0.46875 2.078125,-1.53125 z m 0,0"
           id="id-8bbdc41b-be74-469a-a6d7-0e19622f0bf4-9" />
      </g>
    </g>
    <g
       id="id-b422599d-6e68-48e7-aa92-a6f90cfb8407-8">
      <g
         id="id-bcaffa15-2980-4e23-81ae-8193095aaa31-1" />
      <g
         id="id-ebb1f616-83f8-401b-9d04-7317e4ba84aa-93">
        <path
           d="M 10.09375,-1.5 9.890625,-1.671875 9.578125,-1.3125 c -0.40625,0.53125 -0.6875,0.765625 -0.921875,0.765625 -0.125,0 -0.171875,-0.0625 -0.171875,-0.234375 0,-0.046875 0.046875,-0.3125 0.140625,-0.640625 l 0.96875,-3.59375 c 0.015625,-0.078125 0.046875,-0.3125 0.046875,-0.40625 0,-0.515625 -0.359375,-0.90625 -0.828125,-0.90625 -0.296875,0 -0.546875,0.09375 -0.890625,0.296875 -0.703125,0.453125 -1.3125,1.15625 -2.3125,2.75 C 5.96875,-4.390625 6.1875,-5.1875 6.1875,-5.46875 c 0,-0.515625 -0.328125,-0.859375 -0.828125,-0.859375 -0.875,0 -1.875,0.953125 -3.1875,3.03125 L 3,-6.296875 2.953125,-6.328125 0.65625,-5.875 v 0.21875 h 0.359375 c 0.390625,0 0.5625,0.109375 0.5625,0.328125 0,0.171875 -0.328125,1.46875 -0.84375,3.28125 L 0.171875,0 H 1.25 c 0.6875,-2.265625 0.90625,-2.8125 1.390625,-3.5625 0.796875,-1.21875 1.65625,-2.015625 2.15625,-2.015625 0.1875,0 0.28125,0.125 0.28125,0.359375 0,0.1875 -0.390625,1.703125 -1,3.90625 L 3.71875,0 h 1.078125 c 0.546875,-2.203125 0.84375,-2.921875 1.546875,-3.921875 0.71875,-1 1.4375,-1.65625 1.875,-1.65625 0.15625,0 0.28125,0.125 0.28125,0.296875 0,0.078125 -0.015625,0.21875 -0.09375,0.5 l -0.828125,3.296875 c -0.140625,0.5625 -0.1875,0.8125 -0.1875,0.953125 0,0.4375 0.203125,0.65625 0.5625,0.65625 0.6875,0 1.3125,-0.46875 2.078125,-1.53125 z m 0,0"
           id="id-8bbdc41b-be74-469a-a6d7-0e19622f0bf4-2" />
      </g>
    </g>
    <g
       id="id-d4d17f53-66d5-428a-bcb9-36db0fea080d-7">
      <g
         id="id-d695e24c-2965-4500-b745-e9c62d2a0a9d-4" />
      <g
         id="id-3b7ab253-49b1-4e09-ad2e-a3bb6ba7e0b0-4">
        <path
           d="M 5.3125,-1.390625 5.140625,-1.5625 c -1.03125,0.84375 -1.484375,1.078125 -2.109375,1.078125 -0.8125,0 -1.34375,-0.515625 -1.34375,-1.3125 0,-0.21875 0.03125,-0.40625 0.15625,-0.875 L 2.234375,-2.71875 c 2.15625,-0.3125 3.671875,-1.390625 3.671875,-2.625 0,-0.609375 -0.421875,-0.984375 -1.140625,-0.984375 -2.0625,0 -4.328125,2.359375 -4.328125,4.515625 0,1.171875 0.78125,1.96875 1.90625,1.96875 1.015625,0 2.109375,-0.578125 2.96875,-1.546875 z M 4.96875,-5.4375 c 0,0.453125 -0.28125,0.96875 -0.71875,1.390625 -0.53125,0.5 -1.078125,0.765625 -2.3125,1.0625 l 0.25,-0.625 C 2.671875,-4.890625 3.734375,-6 4.453125,-6 c 0.3125,0 0.515625,0.21875 0.515625,0.5625 z m 0,0"
           id="id-f93af675-7299-42cb-a1ff-211735763896-1" />
      </g>
    </g>
  </defs>
  <g
     inkscape:groupmode="layer"
     id="layer1"
     inkscape:label="scheme"
     style="display:inline">
    <use
       xlink:href="#g7592"
       id="use1075"
       transform="translate(-215.5,-84.5)"
       inkscape:export-filename="png\схема.png"
       inkscape:export-xdpi="281.92001"
       inkscape:export-ydpi="281.92001" />
    <rect
       style="fill:none;stroke:#000000;stroke-width:0.734847;stroke-dasharray:none;stroke-opacity:1;stop-color:#000000"
       id="rect1839"
       width="40"
       height="30"
       x="185"
       y="65" />
    <rect
       style="fill:none;stroke:#000000;stroke-width:0.779423;stroke-dasharray:none;stroke-opacity:1;stop-color:#000000"
       id="rect1839-7"
       width="45"
       height="30"
       x="250"
       y="65" />
    <g
       transform="matrix(1.33333,0,0,1.33333,448.076,42.1175)"
       ns5:version="1.8.2"
       ns5:texconverter="xelatex"
       ns5:pdfconverter="inkscape"
       ns5:text="$ -Y_2 $"
       ns5:preamble="E:\Mine data\Projects\Tex\Выч. Методы\Lab04\preamble.tex"
       ns5:scale="1.0"
       ns5:alignment="middle center"
       ns5:stroke-to-path="0"
       ns5:inkscapeversion="1.3.2"
       ns5:jacobian_sqrt="1.33333"
       id="g3816-4-5-8-7-5-9">
      <defs
         id="id-2e35fe6b-9a2c-4287-adbf-da11fc69ab85">
        <g
           id="id-391783e0-58b5-4fb8-986b-ebc837e196bb">
          <g
             id="id-76ea7867-0346-46d5-aa1b-7b48535354de" />
          <g
             id="id-ef6e4df4-9f5e-40f9-a993-9d839a73384c">
            <path
               d="m 8.234375,-3.28125 v -0.8125 h -7.34375 v 0.8125 z m 0,0"
               id="id-9c03c2c5-98a5-41cb-a50a-6458a60b6dff" />
          </g>
          <g
             id="id-18ebb458-20d0-4188-a395-b6ff2ec57e84" />
          <g
             id="id-90eac50c-2986-419a-90bb-213d4fe2af2d">
            <path
               d="m 9.078125,-9.140625 v -0.21875 H 6.375 v 0.21875 L 6.75,-9.09375 c 0.421875,0.046875 0.609375,0.15625 0.609375,0.40625 0,0.375 -0.640625,1.296875 -2.15625,3.046875 L 4.65625,-4.984375 4.21875,-6.5625 C 3.859375,-7.78125 3.703125,-8.40625 3.703125,-8.625 c 0,-0.359375 0.171875,-0.421875 1.03125,-0.515625 v -0.21875 H 1.3125 v 0.21875 c 0.796875,0.125 0.84375,0.15625 1.078125,0.953125 L 3.5,-4.328125 2.625,-1.296875 c -0.25,0.78125 -0.5625,1.015625 -1.5,1.0625 V 0 H 5.265625 V -0.234375 L 4.75,-0.265625 C 4.1875,-0.296875 3.984375,-0.4375 3.984375,-0.796875 c 0,-0.3125 0.109375,-0.71875 0.453125,-1.859375 L 4.515625,-2.9375 4.9375,-4.390625 l 3.140625,-3.875 c 0.453125,-0.5625 0.578125,-0.671875 1,-0.875 z m 0,0"
               id="id-150a2775-8505-48d9-a8f2-5b37ed35242f" />
          </g>
          <g
             id="id-4e818b99-ea33-4b2c-bdc3-006732451120" />
          <g
             id="id-dd4664cf-42bd-48a3-b57f-b51e01c5d3cb">
            <path
               d="m 4.6875,-1.8125 h -0.25 C 4.375,-1.5 4.3125,-1.046875 4.203125,-0.890625 4.125,-0.8125 3.4375,-0.8125 3.203125,-0.8125 h -1.875 L 2.4375,-1.875 c 1.625,-1.453125 2.25,-2.015625 2.25,-3.0625 0,-1.1875 -0.9375,-2.03125 -2.203125,-2.03125 -1.1875,0 -1.96875,0.96875 -1.96875,1.90625 0,0.578125 0.53125,0.578125 0.5625,0.578125 0.171875,0 0.546875,-0.125 0.546875,-0.546875 0,-0.28125 -0.1875,-0.546875 -0.5625,-0.546875 -0.078125,0 -0.09375,0 -0.125,0 0.234375,-0.671875 0.796875,-1.0625 1.40625,-1.0625 0.953125,0 1.40625,0.84375 1.40625,1.703125 0,0.84375 -0.53125,1.671875 -1.109375,2.3125 l -2,2.234375 C 0.515625,-0.265625 0.515625,-0.25 0.515625,0 H 4.40625 Z m 0,0"
               id="id-82978acc-91b0-431b-9e49-c4766768a3e9" />
          </g>
        </g>
      </defs>
      <g
         fill="#000000"
         fill-opacity="1"
         id="id-13c8ba7a-4a7e-426b-bb72-29ca1a7f21c4"
         transform="translate(-93.0166,-61.2816)">
        <g
           transform="translate(92.126,70.641)"
           id="g10636">
          <path
             d="m 8.234375,-3.28125 v -0.8125 h -7.34375 v 0.8125 z m 0,0"
             id="id-61314293-e526-4d79-9d4a-ef409bc14a98" />
        </g>
      </g>
      <g
         fill="#000000"
         fill-opacity="1"
         id="id-0d3a3fb7-3153-4377-9ed0-1fa335b42c84"
         transform="translate(-93.0166,-61.2816)">
        <g
           transform="translate(100.49,70.641)"
           id="g10640">
          <path
             d="m 9.078125,-9.140625 v -0.21875 H 6.375 v 0.21875 L 6.75,-9.09375 c 0.421875,0.046875 0.609375,0.15625 0.609375,0.40625 0,0.375 -0.640625,1.296875 -2.15625,3.046875 L 4.65625,-4.984375 4.21875,-6.5625 C 3.859375,-7.78125 3.703125,-8.40625 3.703125,-8.625 c 0,-0.359375 0.171875,-0.421875 1.03125,-0.515625 v -0.21875 H 1.3125 v 0.21875 c 0.796875,0.125 0.84375,0.15625 1.078125,0.953125 L 3.5,-4.328125 2.625,-1.296875 c -0.25,0.78125 -0.5625,1.015625 -1.5,1.0625 V 0 H 5.265625 V -0.234375 L 4.75,-0.265625 C 4.1875,-0.296875 3.984375,-0.4375 3.984375,-0.796875 c 0,-0.3125 0.109375,-0.71875 0.453125,-1.859375 L 4.515625,-2.9375 4.9375,-4.390625 l 3.140625,-3.875 c 0.453125,-0.5625 0.578125,-0.671875 1,-0.875 z m 0,0"
             id="id-96e8c350-09b1-433d-91f4-deb5ca10d210" />
        </g>
      </g>
      <g
         fill="#000000"
         fill-opacity="1"
         id="id-419fc04d-62fe-4979-b337-ee85a8e863d5"
         transform="translate(-93.0166,-61.2816)">
        <g
           transform="translate(108.122,72.793)"
           id="g10644">
          <path
             d="m 4.6875,-1.8125 h -0.25 C 4.375,-1.5 4.3125,-1.046875 4.203125,-0.890625 4.125,-0.8125 3.4375,-0.8125 3.203125,-0.8125 h -1.875 L 2.4375,-1.875 c 1.625,-1.453125 2.25,-2.015625 2.25,-3.0625 0,-1.1875 -0.9375,-2.03125 -2.203125,-2.03125 -1.1875,0 -1.96875,0.96875 -1.96875,1.90625 0,0.578125 0.53125,0.578125 0.5625,0.578125 0.171875,0 0.546875,-0.125 0.546875,-0.546875 0,-0.28125 -0.1875,-0.546875 -0.5625,-0.546875 -0.078125,0 -0.09375,0 -0.125,0 0.234375,-0.671875 0.796875,-1.0625 1.40625,-1.0625 0.953125,0 1.40625,0.84375 1.40625,1.703125 0,0.84375 -0.53125,1.671875 -1.109375,2.3125 l -2,2.234375 C 0.515625,-0.265625 0.515625,-0.25 0.515625,0 H 4.40625 Z m 0,0"
             id="id-e1b1a876-abc6-46c6-94a2-f0cef97d9187" />
        </g>
      </g>
    </g>
    <path
       style="fill:none;stroke:#000000;stroke-width:1px;stroke-linecap:butt;stroke-linejoin:miter;stroke-miterlimit:4;stroke-opacity:1;marker-end:url(#Arrow1L)"
       d="m 170,80 h 15"
       id="path11272" />
    <path
       style="fill:none;stroke:#000000;stroke-width:1px;stroke-linecap:butt;stroke-linejoin:miter;stroke-miterlimit:4;stroke-opacity:1;marker-end:url(#Arrow1L)"
       d="m 225,80 h 25"
       id="path11512" />
    <path
       style="fill:none;stroke:#000000;stroke-width:1px;stroke-linecap:butt;stroke-linejoin:miter;stroke-miterlimit:4;stroke-opacity:1;marker-end:url(#Arrow1L)"
       d="m 295,80 h 50"
       id="path11752" />
    <path
       style="fill:none;stroke:#000000;stroke-width:1px;stroke-linecap:butt;stroke-linejoin:miter;stroke-miterlimit:4;stroke-opacity:1;marker-end:url(#Arrow1L)"
       d="m 315,125 -155,0.83051 V 90"
       id="path12232"
       sodipodi:nodetypes="ccc" />
    <path
       style="fill:none;stroke:#000000"
       d="m 315,80 v 45.50424"
       id="path1"
       sodipodi:nodetypes="cc" />
    <g
       inkscape:label=""
       transform="translate(192.95836,72.895847)"
       id="g1">
      <g
         fill="#000000"
         fill-opacity="1"
         id="g5"
         transform="matrix(1.33333,0,0,1.33333,-3.324,-2.64083)">
        <g
           id="use4"
           transform="translate(1.993,9.4650002)">
          <path
             d="M 1.6875,1.6875 C 1.65625,1.828125 1.640625,1.84375 1.640625,1.890625 c 0,0.21875 0.1875,0.28125 0.296875,0.28125 0.046875,0 0.265625,-0.03125 0.359375,-0.265625 C 2.328125,1.828125 2.375,1.5 2.65625,0.09375 c 0.078125,0 0.15625,0.015625 0.328125,0.015625 1.65625,0 3.1875,-1.5625 3.1875,-3.140625 0,-0.78125 -0.390625,-1.375 -1.140625,-1.375 -1.4375,0 -2.046875,1.9375 -2.640625,3.875 C 1.3125,-0.734375 0.75,-1.28125 0.75,-2 c 0,-0.28125 0.234375,-1.375 0.828125,-2.0625 0.09375,-0.09375 0.09375,-0.109375 0.09375,-0.140625 0,-0.03125 -0.03125,-0.09375 -0.125,-0.09375 -0.28125,0 -1.046875,1.453125 -1.046875,2.40625 0,0.9375 0.65625,1.65625 1.71875,1.90625 z m 1.390625,-2.15625 c -0.09375,0 -0.109375,0 -0.1875,-0.015625 -0.125,0 -0.125,0 -0.125,-0.03125 0,-0.015625 0.171875,-0.9375 0.1875,-1.078125 0.3125,-1.28125 1.09375,-2.234375 1.984375,-2.234375 0.6875,0 0.953125,0.53125 0.953125,1.015625 0,1.125 -1.28125,2.34375 -2.8125,2.34375 z m 0,0"
             id="path8" />
        </g>
      </g>
      <g
         fill="#000000"
         fill-opacity="1"
         id="g6"
         transform="matrix(1.33333,0,0,1.33333,-3.324,-2.64083)">
        <g
           id="use5"
           transform="translate(8.5100002,9.4650002)">
          <path
             d="m 3.296875,2.390625 c 0,-0.03125 0,-0.046875 -0.171875,-0.21875 C 1.890625,0.921875 1.5625,-0.96875 1.5625,-2.5 c 0,-1.734375 0.375,-3.46875 1.609375,-4.703125 0.125,-0.125 0.125,-0.140625 0.125,-0.171875 0,-0.078125 -0.03125,-0.109375 -0.09375,-0.109375 -0.109375,0 -1,0.6875 -1.59375,1.953125 -0.5,1.09375 -0.625,2.203125 -0.625,3.03125 0,0.78125 0.109375,1.984375 0.65625,3.125 C 2.25,1.84375 3.09375,2.5 3.203125,2.5 c 0.0625,0 0.09375,-0.03125 0.09375,-0.109375 z m 0,0"
             id="path9" />
        </g>
      </g>
      <g
         fill="#000000"
         fill-opacity="1"
         id="g7"
         transform="matrix(1.33333,0,0,1.33333,-3.324,-2.64083)">
        <g
           id="use6"
           transform="translate(12.384,9.4650002)">
          <path
             d="M 3.328125,-3.015625 C 3.390625,-3.265625 3.625,-4.1875 4.3125,-4.1875 c 0.046875,0 0.296875,0 0.5,0.125 C 4.53125,-4 4.34375,-3.765625 4.34375,-3.515625 c 0,0.15625 0.109375,0.34375 0.375,0.34375 0.21875,0 0.53125,-0.171875 0.53125,-0.578125 0,-0.515625 -0.578125,-0.65625 -0.921875,-0.65625 -0.578125,0 -0.921875,0.53125 -1.046875,0.75 -0.25,-0.65625 -0.78125,-0.75 -1.078125,-0.75 -1.03125,0 -1.609375,1.28125 -1.609375,1.53125 0,0.109375 0.109375,0.109375 0.125,0.109375 0.078125,0 0.109375,-0.03125 0.125,-0.109375 0.34375,-1.0625 1,-1.3125 1.34375,-1.3125 0.1875,0 0.53125,0.09375 0.53125,0.671875 0,0.3125 -0.171875,0.96875 -0.53125,2.375 -0.15625,0.609375 -0.515625,1.03125 -0.953125,1.03125 -0.0625,0 -0.28125,0 -0.5,-0.125 0.25,-0.0625 0.46875,-0.265625 0.46875,-0.546875 0,-0.265625 -0.21875,-0.34375 -0.359375,-0.34375 -0.3125,0 -0.546875,0.25 -0.546875,0.578125 0,0.453125 0.484375,0.65625 0.921875,0.65625 0.671875,0 1.03125,-0.703125 1.046875,-0.75 0.125,0.359375 0.484375,0.75 1.078125,0.75 1.03125,0 1.59375,-1.28125 1.59375,-1.53125 0,-0.109375 -0.078125,-0.109375 -0.109375,-0.109375 -0.09375,0 -0.109375,0.046875 -0.140625,0.109375 -0.328125,1.078125 -1,1.3125 -1.3125,1.3125 -0.390625,0 -0.546875,-0.3125 -0.546875,-0.65625 0,-0.21875 0.046875,-0.4375 0.15625,-0.875 z m 0,0"
             id="path10" />
        </g>
      </g>
      <g
         fill="#000000"
         fill-opacity="1"
         id="g8"
         transform="matrix(1.33333,0,0,1.33333,-3.324,-2.64083)">
        <g
           id="use7"
           transform="translate(18.077999,9.4650002)">
          <path
             d="m 2.875,-2.5 c 0,-0.765625 -0.109375,-1.96875 -0.65625,-3.109375 -0.59375,-1.21875 -1.453125,-1.875 -1.546875,-1.875 -0.0625,0 -0.109375,0.046875 -0.109375,0.109375 0,0.03125 0,0.046875 0.1875,0.234375 0.984375,0.984375 1.546875,2.5625 1.546875,4.640625 0,1.71875 -0.359375,3.46875 -1.59375,4.71875 C 0.5625,2.34375 0.5625,2.359375 0.5625,2.390625 0.5625,2.453125 0.609375,2.5 0.671875,2.5 0.765625,2.5 1.671875,1.8125 2.25,0.546875 2.765625,-0.546875 2.875,-1.65625 2.875,-2.5 Z m 0,0"
             id="path11" />
        </g>
      </g>
    </g>
    <g
       inkscape:label=""
       transform="translate(258.41669,74.062505)"
       id="g16">
      <g
         fill="#000000"
         fill-opacity="1"
         id="g3"
         transform="matrix(1.33333,0,0,1.33333,-3.3865,-2.64083)">
        <g
           id="g2"
           transform="translate(1.993,9.4650002)">
          <path
             d="m 9.140625,-5.65625 c 0.25,-0.4375 0.484375,-0.796875 1.125,-0.84375 0.07813,-0.015625 0.1875,-0.015625 0.1875,-0.203125 0,-0.03125 -0.04687,-0.109375 -0.125,-0.109375 -0.234375,0 -0.515625,0.03125 -0.765625,0.03125 -0.34375,0 -0.703125,-0.03125 -1.046875,-0.03125 -0.046875,0 -0.1875,0 -0.1875,0.1875 0,0.109375 0.09375,0.125 0.15625,0.125 0.234375,0.015625 0.59375,0.09375 0.59375,0.390625 0,0.109375 -0.0625,0.1875 -0.140625,0.328125 L 6.25,-1.09375 5.875,-6.03125 c 0,-0.203125 -0.015625,-0.453125 0.703125,-0.46875 0.171875,0 0.265625,0 0.265625,-0.203125 0,-0.09375 -0.109375,-0.109375 -0.140625,-0.109375 -0.40625,0 -0.828125,0.03125 -1.21875,0.03125 -0.234375,0 -0.8125,-0.03125 -1.046875,-0.03125 -0.0625,0 -0.1875,0 -0.1875,0.203125 C 4.25,-6.5 4.34375,-6.5 4.484375,-6.5 4.921875,-6.5 5,-6.4375 5.015625,-6.25 l 0.0625,0.765625 -2.53125,4.390625 -0.375,-5.046875 c 0,-0.125 0,-0.34375 0.765625,-0.359375 0.09375,0 0.203125,0 0.203125,-0.203125 C 3.140625,-6.8125 3.015625,-6.8125 3,-6.8125 c -0.390625,0 -0.8125,0.03125 -1.21875,0.03125 -0.359375,0 -0.71875,-0.03125 -1.046875,-0.03125 -0.0625,0 -0.1875,0 -0.1875,0.1875 0,0.125 0.09375,0.125 0.25,0.125 0.5,0 0.515625,0.09375 0.53125,0.375 l 0.453125,6.078125 c 0,0.1875 0.015625,0.265625 0.15625,0.265625 0.109375,0 0.140625,-0.0625 0.234375,-0.203125 l 2.9375,-5.09375 0.359375,5.03125 C 5.5,0.171875 5.515625,0.21875 5.625,0.21875 c 0.140625,0 0.203125,-0.09375 0.25,-0.1875 z m 0,0"
             id="path2" />
        </g>
      </g>
      <g
         fill="#000000"
         fill-opacity="1"
         id="g9"
         transform="matrix(1.33333,0,0,1.33333,-3.3865,-2.64083)">
        <g
           id="g4"
           transform="translate(12.785,9.4650002)">
          <path
             d="m 3.296875,2.390625 c 0,-0.03125 0,-0.046875 -0.171875,-0.21875 C 1.890625,0.921875 1.5625,-0.96875 1.5625,-2.5 c 0,-1.734375 0.375,-3.46875 1.609375,-4.703125 0.125,-0.125 0.125,-0.140625 0.125,-0.171875 0,-0.078125 -0.03125,-0.109375 -0.09375,-0.109375 -0.109375,0 -1,0.6875 -1.59375,1.953125 -0.5,1.09375 -0.625,2.203125 -0.625,3.03125 0,0.78125 0.109375,1.984375 0.65625,3.125 C 2.25,1.84375 3.09375,2.5 3.203125,2.5 c 0.0625,0 0.09375,-0.03125 0.09375,-0.109375 z m 0,0"
             id="path3" />
        </g>
      </g>
      <g
         fill="#000000"
         fill-opacity="1"
         id="g13"
         transform="matrix(1.33333,0,0,1.33333,-3.3865,-2.64083)">
        <g
           id="g12"
           transform="translate(16.66,9.4650002)">
          <path
             d="M 0.453125,1.21875 C 0.375,1.5625 0.34375,1.625 -0.09375,1.625 c -0.109375,0 -0.21875,0 -0.21875,0.1875 0,0.078125 0.046875,0.125 0.125,0.125 0.265625,0 0.5625,-0.03125 0.828125,-0.03125 0.34375,0 0.671875,0.03125 1,0.03125 0.046875,0 0.171875,0 0.171875,-0.203125 C 1.8125,1.625 1.71875,1.625 1.578125,1.625 c -0.5,0 -0.5,-0.0625 -0.5,-0.15625 0,-0.125 0.421875,-1.75 0.484375,-2 0.125,0.296875 0.40625,0.640625 0.921875,0.640625 1.15625,0 2.40625,-1.453125 2.40625,-2.921875 0,-0.9375 -0.578125,-1.59375 -1.328125,-1.59375 -0.5,0 -0.984375,0.359375 -1.3125,0.75 -0.09375,-0.546875 -0.53125,-0.75 -0.890625,-0.75 -0.46875,0 -0.65625,0.390625 -0.734375,0.5625 C 0.4375,-3.5 0.3125,-2.90625 0.3125,-2.875 c 0,0.109375 0.09375,0.109375 0.109375,0.109375 0.109375,0 0.109375,-0.015625 0.171875,-0.234375 0.171875,-0.703125 0.375,-1.1875 0.734375,-1.1875 0.171875,0 0.3125,0.078125 0.3125,0.453125 0,0.234375 -0.03125,0.34375 -0.078125,0.515625 z m 1.75,-4.328125 C 2.265625,-3.375 2.546875,-3.65625 2.71875,-3.8125 c 0.359375,-0.296875 0.640625,-0.375 0.8125,-0.375 0.390625,0 0.640625,0.34375 0.640625,0.9375 0,0.59375 -0.328125,1.734375 -0.515625,2.109375 -0.34375,0.703125 -0.8125,1.03125 -1.1875,1.03125 C 1.8125,-0.109375 1.6875,-0.9375 1.6875,-1 c 0,-0.015625 0,-0.03125 0.03125,-0.15625 z m 0,0"
             id="path12" />
        </g>
      </g>
      <g
         fill="#000000"
         fill-opacity="1"
         id="g15"
         transform="matrix(1.33333,0,0,1.33333,-3.3865,-2.64083)">
        <g
           id="g14"
           transform="translate(21.672001,9.4650002)">
          <path
             d="m 2.875,-2.5 c 0,-0.765625 -0.109375,-1.96875 -0.65625,-3.109375 -0.59375,-1.21875 -1.453125,-1.875 -1.546875,-1.875 -0.0625,0 -0.109375,0.046875 -0.109375,0.109375 0,0.03125 0,0.046875 0.1875,0.234375 0.984375,0.984375 1.546875,2.5625 1.546875,4.640625 0,1.71875 -0.359375,3.46875 -1.59375,4.71875 C 0.5625,2.34375 0.5625,2.359375 0.5625,2.390625 0.5625,2.453125 0.609375,2.5 0.671875,2.5 0.765625,2.5 1.671875,1.8125 2.25,0.546875 2.765625,-0.546875 2.875,-1.65625 2.875,-2.5 Z m 0,0"
             id="path13" />
        </g>
      </g>
    </g>
    <g
       inkscape:label=""
       transform="translate(171.85418,66.187528)"
       id="g21">
      <g
         fill="#000000"
         fill-opacity="1"
         id="g20"
         transform="matrix(1.33333,0,0,1.33333,-3.0115,-2.65)">
        <g
           id="g19"
           transform="translate(1.993,8.8000002)">
          <path
             d="M 4.828125,-4.09375 4,-6.078125 c -0.03125,-0.078125 -0.046875,-0.125 -0.046875,-0.125 0,-0.0625 0.15625,-0.25 0.578125,-0.296875 0.109375,-0.015625 0.203125,-0.015625 0.203125,-0.1875 0,-0.125 -0.125,-0.125 -0.15625,-0.125 -0.40625,0 -0.828125,0.03125 -1.25,0.03125 -0.25,0 -0.859375,-0.03125 -1.109375,-0.03125 -0.0625,0 -0.1875,0 -0.1875,0.203125 C 2.03125,-6.5 2.140625,-6.5 2.265625,-6.5 c 0.59375,0 0.65625,0.09375 0.75,0.3125 l 1.171875,2.78125 -2.109375,2.265625 -0.125,0.109375 C 1.46875,-0.5 1,-0.34375 0.484375,-0.3125 c -0.125,0.015625 -0.21875,0.015625 -0.21875,0.203125 0,0.015625 0,0.109375 0.140625,0.109375 0.296875,0 0.625,-0.03125 0.921875,-0.03125 C 1.703125,-0.03125 2.09375,0 2.453125,0 2.515625,0 2.625,0 2.625,-0.203125 2.625,-0.296875 2.53125,-0.3125 2.515625,-0.3125 c -0.09375,0 -0.40625,-0.03125 -0.40625,-0.3125 0,-0.15625 0.15625,-0.3125 0.265625,-0.4375 L 3.40625,-2.140625 4.296875,-3.125 l 1,2.390625 c 0.046875,0.109375 0.0625,0.109375 0.0625,0.140625 0,0.078125 -0.203125,0.25 -0.578125,0.28125 C 4.671875,-0.296875 4.578125,-0.296875 4.578125,-0.125 4.578125,0 4.6875,0 4.71875,0 5,0 5.703125,-0.03125 5.984375,-0.03125 6.234375,-0.03125 6.84375,0 7.09375,0 c 0.0625,0 0.1875,0 0.1875,-0.1875 0,-0.125 -0.109375,-0.125 -0.1875,-0.125 -0.65625,0 -0.6875,-0.03125 -0.859375,-0.4375 C 5.859375,-1.671875 5.1875,-3.234375 4.953125,-3.828125 5.625,-4.53125 6.671875,-5.71875 7,-5.984375 7.28125,-6.234375 7.671875,-6.46875 8.265625,-6.5 c 0.125,-0.015625 0.21875,-0.015625 0.21875,-0.203125 0,0 0,-0.109375 -0.125,-0.109375 -0.296875,0 -0.640625,0.03125 -0.9375,0.03125 -0.375,0 -0.75,-0.03125 -1.109375,-0.03125 -0.0625,0 -0.1875,0 -0.1875,0.203125 0,0.0625 0.046875,0.09375 0.109375,0.109375 0.09375,0.015625 0.40625,0.03125 0.40625,0.3125 0,0.140625 -0.109375,0.265625 -0.1875,0.359375 z m 0,0"
             id="path18" />
        </g>
      </g>
    </g>
    <g
       inkscape:label=""
       transform="translate(235.00001,65.916696)"
       id="g24">
      <g
         fill="#000000"
         fill-opacity="1"
         id="g23"
         transform="matrix(1.33333,0,0,1.33333,-3.11567,-2.65)">
        <g
           id="g22"
           transform="translate(1.993,8.8000002)">
          <path
             d="M 5.953125,-5.671875 6.09375,-5.8125 C 6.390625,-6.109375 6.71875,-6.453125 7.390625,-6.5 7.5,-6.515625 7.59375,-6.515625 7.59375,-6.6875 c 0,-0.078125 -0.046875,-0.125 -0.125,-0.125 -0.265625,0 -0.546875,0.03125 -0.8125,0.03125 -0.34375,0 -0.6875,-0.03125 -1,-0.03125 -0.0625,0 -0.1875,0 -0.1875,0.1875 0,0.109375 0.09375,0.125 0.140625,0.125 0.078125,0 0.359375,0.015625 0.359375,0.234375 0,0.171875 -0.234375,0.421875 -0.265625,0.46875 L 3.390625,-3.125 2.296875,-6.09375 C 2.234375,-6.234375 2.234375,-6.25 2.234375,-6.265625 2.234375,-6.5 2.71875,-6.5 2.828125,-6.5 c 0.125,0 0.234375,0 0.234375,-0.203125 0,-0.109375 -0.125,-0.109375 -0.15625,-0.109375 -0.28125,0 -0.96875,0.03125 -1.25,0.03125 -0.25,0 -0.875,-0.03125 -1.125,-0.03125 -0.046875,0 -0.1875,0 -0.1875,0.203125 C 0.34375,-6.5 0.453125,-6.5 0.578125,-6.5 c 0.59375,0 0.640625,0.09375 0.734375,0.34375 L 2.53125,-2.875 c 0.015625,0.03125 0.046875,0.140625 0.046875,0.15625 0,0.03125 -0.40625,1.640625 -0.453125,1.828125 C 2,-0.34375 1.984375,-0.3125 1.1875,-0.3125 c -0.1875,0 -0.265625,0 -0.265625,0.203125 C 0.921875,0 1.03125,0 1.0625,0 c 0.265625,0 0.96875,-0.03125 1.25,-0.03125 0.28125,0 1,0.03125 1.28125,0.03125 0.0625,0 0.1875,0 0.1875,-0.203125 C 3.78125,-0.3125 3.6875,-0.3125 3.5,-0.3125 c -0.015625,0 -0.203125,0 -0.375,-0.015625 C 2.90625,-0.34375 2.84375,-0.375 2.84375,-0.484375 c 0,-0.078125 0.09375,-0.421875 0.140625,-0.625 l 0.359375,-1.40625 c 0.046875,-0.203125 0.0625,-0.21875 0.140625,-0.3125 z m 0,0"
             id="path21" />
        </g>
      </g>
    </g>
    <g
       inkscape:label=""
       transform="translate(311.78127,65.916696)"
       id="g27">
      <g
         fill="#000000"
         fill-opacity="1"
         id="g26"
         transform="matrix(1.33333,0,0,1.33333,-3.42817,-2.65)">
        <g
           id="g25"
           transform="translate(1.993,8.8000002)">
          <path
             d="m 7.171875,-6.5625 c 0.015625,-0.046875 0.03125,-0.09375 0.03125,-0.15625 0,-0.09375 -0.046875,-0.09375 -0.25,-0.09375 H 2.75 c -0.234375,0 -0.25,0.015625 -0.3125,0.203125 L 1.890625,-4.8125 c -0.015625,0.046875 -0.03125,0.125 -0.03125,0.140625 0,0 0,0.109375 0.125,0.109375 0.09375,0 0.109375,-0.078125 0.125,-0.109375 C 2.5,-5.84375 3.015625,-6.5 4.5625,-6.5 h 1.625 L 0.625,-0.265625 c 0,0 -0.046875,0.140625 -0.046875,0.171875 C 0.578125,0 0.640625,0 0.828125,0 H 5.15625 c 0.25,0 0.25,-0.015625 0.3125,-0.203125 L 6.1875,-2.40625 c 0,-0.03125 0.03125,-0.109375 0.03125,-0.140625 0,-0.0625 -0.03125,-0.109375 -0.125,-0.109375 -0.09375,0 -0.109375,0.03125 -0.171875,0.25 C 5.484375,-1.0625 5,-0.34375 3.3125,-0.34375 H 1.609375 Z m 0,0"
             id="path24" />
        </g>
      </g>
    </g>
  </g>
</svg>
